<svg viewBox="0 0 24 24" xml:space="preserve" xmlns="http://www.w3.org/2000/svg"><path fill="#000000" d="M0 1h10L0 23zM13.5 23H18L12 9 7.5 19H12zM14 1l10 22V1z" class="fill-e83628"></path><linearGradient gradientUnits="userSpaceOnUse" id="a" x1="-3.32" x2="5.106" y1="8.12" y2="12.05"><stop offset="0" stop-color="#000000" stop-opacity=".1" class="stop-color-ffffff"></stop><stop offset="1" stop-color="#000000" stop-opacity="0" class="stop-color-ffffff"></stop></linearGradient><path fill="url(#a)" d="M0 1h10L0 23z" class="fillurl(-a)"></path><linearGradient gradientUnits="userSpaceOnUse" id="b" x1="8.375" x2="18.375" y1="12.625" y2="22.625"><stop offset="0" stop-color="#000000" stop-opacity="0" class="stop-color-000000"></stop><stop offset="1" stop-color="#000000" stop-opacity=".1" class="stop-color-000000"></stop></linearGradient><path fill="url(#b)" d="M13.5 23H18L12 9 7.5 19H12z" class="fillurl(-b)"></path><linearGradient gradientUnits="userSpaceOnUse" id="c" x1="13.5" x2="29.5" y1="1.5" y2="17.5"><stop offset="0" stop-color="#000000" stop-opacity="0" class="stop-color-000000"></stop><stop offset="1" stop-color="#000000" stop-opacity=".1" class="stop-color-000000"></stop></linearGradient><path fill="url(#c)" d="m14 1 10 22V1z" class="fillurl(-c)"></path><linearGradient gradientUnits="userSpaceOnUse" id="d" x1="-2.07" x2="26.07" y1="5.439" y2="18.561"><stop offset="0" stop-color="#000000" stop-opacity=".1" class="stop-color-ffffff"></stop><stop offset="1" stop-color="#000000" stop-opacity="0" class="stop-color-ffffff"></stop></linearGradient><path d="M0 1v22L10 1H0zm7.5 18H12l1.5 4H18L12 9 7.5 19zM14 1l10 22V1H14z" fill="url(#d)" class="fillurl(-d)"></path></svg>